<svg width="24" height="25" viewBox="0 0 24 25" fill="none" xmlns="http://www.w3.org/2000/svg">
<path d="M17.2088 7.50183L17.2088 7.50176C17.4434 4.33465 15.119 1.8125 11.9807 1.8125C8.84873 1.8125 6.51837 4.27992 6.75258 7.50042L6.75259 7.5005C6.9651 10.4194 9.20637 13.0433 11.9807 13.0433C14.7561 13.0433 16.9925 10.4178 17.2088 7.50183Z" stroke="#2B2B2B" stroke-width="2" stroke-linecap="round" stroke-linejoin="round"/>
<path d="M22.1789 21.606L22.1789 21.606C21.2758 16.6014 16.4475 14.1201 11.9809 14.1201C7.51427 14.1201 2.68592 16.6014 1.78331 21.606C1.6951 22.095 1.77943 22.6255 2.07658 23.0597C2.38911 23.5163 2.90579 23.8124 3.51935 23.8124H20.4424C21.0559 23.8124 21.5727 23.5166 21.8855 23.0599C22.1828 22.6256 22.2672 22.095 22.1789 21.606Z" stroke="#2B2B2B" stroke-width="2" stroke-miterlimit="10"/>
</svg>
